# xmcd
# 
# Track frame offsets:
#     150
#     28362
#     58237
#     85235
#     123342
#     150895
#     210917
# 
# Disc length: 3218
# 
# Revision: 1
# Processed by: cddbd v1.5.2PL0 Copyright (c) Steve Scherf et al.
# Submitted via: BonkEnc v1.0.6
# 
DISCID=530c9007
DTITLE=Steve Kuhn - Live In Japan, Vol.2
DYEAR=1994
DGENRE=Jazz
TTITLE0=Lover Man
TTITLE1=Bitter Homes And Gardens
TTITLE2=Super Jet
TTITLE3=Ladies In Mercedes
TTITLE4=I Waited For You
TTITLE5=Confirmation
TTITLE6=Emmanuel
EXTD=
EXTT0=
EXTT1=
EXTT2=
EXTT3=
EXTT4=
EXTT5=
EXTT6=
PLAYORDER=
